<svg width="16" height="16" viewBox="0 0 16 16" fill="none" xmlns="http://www.w3.org/2000/svg">
<path d="M10.6665 5.3335C11.7274 5.3335 12.7448 5.75492 13.4949 6.50507C14.2451 7.25521 14.6665 8.27263 14.6665 9.3335V14.0002H11.9998V9.3335C11.9998 8.97987 11.8594 8.64074 11.6093 8.39069C11.3593 8.14064 11.0201 8.00016 10.6665 8.00016C10.3129 8.00016 9.97374 8.14064 9.7237 8.39069C9.47365 8.64074 9.33317 8.97987 9.33317 9.3335V14.0002H6.6665V9.3335C6.6665 8.27263 7.08793 7.25521 7.83808 6.50507C8.58822 5.75492 9.60564 5.3335 10.6665 5.3335V5.3335Z" stroke="white" stroke-width="2" stroke-linecap="round" stroke-linejoin="round"/>
<path d="M4.00016 6H1.3335V14H4.00016V6Z" stroke="white" stroke-width="2" stroke-linecap="round" stroke-linejoin="round"/>
<path d="M2.66683 4.00016C3.40321 4.00016 4.00016 3.40321 4.00016 2.66683C4.00016 1.93045 3.40321 1.3335 2.66683 1.3335C1.93045 1.3335 1.3335 1.93045 1.3335 2.66683C1.3335 3.40321 1.93045 4.00016 2.66683 4.00016Z" stroke="white" stroke-width="2" stroke-linecap="round" stroke-linejoin="round"/>
</svg>
