<svg width="16" height="16" viewBox="0 0 16 16" fill="none" xmlns="http://www.w3.org/2000/svg">
<g clip-path="url(#clip0)">
<path d="M15.3332 1.99987C14.6948 2.45019 13.9879 2.79461 13.2398 3.01987C12.8383 2.55821 12.3047 2.231 11.7112 2.08249C11.1177 1.93397 10.4928 1.97133 9.92122 2.1895C9.34961 2.40768 8.8588 2.79614 8.51516 3.30235C8.17152 3.80856 7.99164 4.40809 7.99984 5.01987V5.68653C6.82826 5.71691 5.66735 5.45708 4.62051 4.93017C3.57367 4.40325 2.67338 3.62562 1.99984 2.66653C1.99984 2.66653 -0.666829 8.66653 5.33317 11.3332C3.96019 12.2652 2.32461 12.7325 0.666504 12.6665C6.6665 15.9999 13.9998 12.6665 13.9998 4.99987C13.9992 4.81417 13.9814 4.62893 13.9465 4.44653C14.6269 3.77553 15.1071 2.92834 15.3332 1.99987V1.99987Z" stroke="white" stroke-width="2" stroke-linecap="round" stroke-linejoin="round"/>
</g>
<defs>
<clipPath id="clip0">
<rect width="16" height="16" fill="white"/>
</clipPath>
</defs>
</svg>
