<svg width="105" height="33" viewBox="0 0 105 33" fill="none" xmlns="http://www.w3.org/2000/svg">
<path d="M0 0.0396729H32.9025V32.9422H0V0.0396729Z" fill="#C4C4C4"/>
<path d="M35.8726 0H68.775V32.9025H35.8726V0Z" fill="#C4C4C4"/>
<path d="M71.7451 0.0396729H104.648V32.9422H71.7451V0.0396729Z" fill="#C4C4C4"/>
<path d="M19.6608 16.2921C21.0272 16.5864 22.1308 17.2381 22.9716 18.2471C23.8335 19.2561 24.2644 20.4438 24.2644 21.8102C24.2644 23.618 23.6443 25.0684 22.4041 26.1615C21.1848 27.2546 19.4086 27.8011 17.0752 27.8011H8.81396V5.57141H16.9491C19.1773 5.57141 20.8695 6.06541 22.0257 7.05339C23.1818 8.04138 23.7599 9.39724 23.7599 11.121C23.7599 12.5504 23.371 13.7065 22.5933 14.5894C21.8365 15.4723 20.859 16.0399 19.6608 16.2921ZM11.6833 15.3147H16.4761C17.8845 15.3147 18.9566 14.9888 19.6923 14.3372C20.4491 13.6855 20.8275 12.7711 20.8275 11.5939C20.8275 10.4588 20.4596 9.56541 19.7239 8.91376C18.9881 8.2621 17.8635 7.93628 16.35 7.93628H11.6833V15.3147ZM16.5392 25.4048C18.0527 25.4048 19.2194 25.0579 20.0392 24.3642C20.88 23.6705 21.3005 22.693 21.3005 21.4318C21.3005 20.1915 20.8695 19.2246 20.0077 18.5309C19.1668 17.8162 17.9896 17.4588 16.4761 17.4588H11.6833V25.4048H16.5392Z" fill="white"/>
<path d="M55.5334 16.2921C56.8997 16.5864 58.0033 17.2381 58.8442 18.2471C59.706 19.2561 60.137 20.4438 60.137 21.8102C60.137 23.618 59.5169 25.0684 58.2766 26.1615C57.0574 27.2546 55.2811 27.8011 52.9478 27.8011H44.6865V5.57141H52.8217C55.0499 5.57141 56.7421 6.06541 57.8982 7.05339C59.0544 8.04138 59.6325 9.39724 59.6325 11.121C59.6325 12.5504 59.2436 13.7065 58.4658 14.5894C57.7091 15.4723 56.7316 16.0399 55.5334 16.2921ZM47.5559 15.3147H52.3487C53.7571 15.3147 54.8292 14.9888 55.5649 14.3372C56.3217 13.6855 56.7 12.7711 56.7 11.5939C56.7 10.4588 56.3322 9.56541 55.5964 8.91376C54.8607 8.2621 53.7361 7.93628 52.2226 7.93628H47.5559V15.3147ZM52.4118 25.4048C53.9253 25.4048 55.0919 25.0579 55.9118 24.3642C56.7526 23.6705 57.173 22.693 57.173 21.4318C57.173 20.1915 56.7421 19.2246 55.8802 18.5309C55.0394 17.8162 53.8622 17.4588 52.3487 17.4588H47.5559V25.4048H52.4118Z" fill="white"/>
<path d="M87.9691 5.35065C90.6808 5.35065 92.9196 6.02332 94.6853 7.36867C96.4511 8.69299 97.6703 10.5113 98.343 12.8236H95.316C94.7484 11.3522 93.834 10.1855 92.5727 9.32362C91.3115 8.44074 89.7664 7.9993 87.9376 7.9993C86.4871 7.9993 85.1838 8.35665 84.0277 9.07137C82.8925 9.76506 81.9886 10.7741 81.316 12.0984C80.6643 13.4017 80.3385 14.9362 80.3385 16.702C80.3385 18.4467 80.6643 19.9708 81.316 21.2741C81.9886 22.5774 82.8925 23.5864 84.0277 24.3011C85.1838 24.9948 86.4871 25.3416 87.9376 25.3416C89.7664 25.3416 91.3115 24.9107 92.5727 24.0489C93.834 23.166 94.7484 21.9888 95.316 20.5173H98.343C97.6703 22.8296 96.4511 24.6585 94.6853 26.0038C92.9196 27.3281 90.6808 27.9903 87.9691 27.9903C85.888 27.9903 84.0487 27.5173 82.4511 26.5714C80.8535 25.6044 79.6027 24.2696 78.6988 22.5669C77.816 20.8431 77.3745 18.8882 77.3745 16.702C77.3745 14.4948 77.816 12.5293 78.6988 10.8056C79.6027 9.08188 80.8535 7.74704 82.4511 6.8011C84.0487 5.83413 85.888 5.35065 87.9691 5.35065Z" fill="white"/>
</svg>
