<svg width="53" height="48" viewBox="0 0 53 48" fill="none" xmlns="http://www.w3.org/2000/svg">
<g clip-path="url(#clip0)">
<path d="M52.4369 19.506L27.3141 2.84691C26.8296 2.52572 26.1715 2.52572 25.6872 2.84691L0.564191 19.506C-0.0494499 19.913 -0.182778 20.6934 0.266583 21.2491C0.715945 21.8049 1.57771 21.9254 2.19125 21.5186L26.5006 5.39888L50.8099 21.5185C51.055 21.6812 51.3399 21.7595 51.6223 21.7595C52.0463 21.7595 52.4647 21.5828 52.7344 21.249C53.1839 20.6934 53.0506 19.913 52.4369 19.506Z" fill="#00356B"/>
<path d="M45.7804 21.801C45.02 21.801 44.4034 22.3593 44.4034 23.0481V42.8996H33.387V32.0634C33.387 28.6247 30.2979 25.8272 26.5012 25.8272C22.7044 25.8272 19.6153 28.6248 19.6153 32.0634V42.8997H8.59886V23.0482C8.59886 22.3594 7.98222 21.8011 7.2218 21.8011C6.46137 21.8011 5.84473 22.3594 5.84473 23.0482V44.1469C5.84473 44.8357 6.46137 45.3941 7.2218 45.3941H20.9924C21.7166 45.3941 22.3092 44.8874 22.3641 44.2441C22.3674 44.2149 22.3694 44.183 22.3694 44.1469V32.0635C22.3694 30.0002 24.2229 28.3216 26.5012 28.3216C28.7794 28.3216 30.6329 30.0002 30.6329 32.0635V44.1469C30.6329 44.1828 30.635 44.2142 30.6383 44.2429C30.6925 44.8867 31.2854 45.3941 32.01 45.3941H45.7805C46.5411 45.3941 47.1576 44.8357 47.1576 44.1469V23.0482C47.1575 22.3593 46.541 21.801 45.7804 21.801Z" fill="#00356B"/>
</g>
<defs>
<clipPath id="clip0">
<rect width="53" height="48" fill="white"/>
</clipPath>
</defs>
</svg>
